<?xml version="1.0" encoding="utf-8"?>
<!DOCTYPE svg PUBLIC "-//W3C//DTD SVG 1.1//EN" "http://www.w3.org/Graphics/SVG/1.1/DTD/svg11.dtd">
<svg version="1.1" desc="logo" xmlns="http://www.w3.org/2000/svg" xmlns:xlink="http://www.w3.org/1999/xlink" x="0px" y="0px"
	 width="124.548px" height="90.035px" viewBox="0 0 124.548 90.035" enable-background="new 0 0 124.548 90.035"
	 xml:space="preserve">
<g>
	<path fill="#DC2F34" d="M95.778,37.384c0,0-3.876-4.743-10.569-5.592c0,0-1.239-21.72-22.999-21.734v-0.002h-0.02h-0.036h-0.017
		v0.002c-21.761,0.01-23,21.734-23,21.734c-6.696,0.849-10.565,5.592-10.565,5.592c-6.972,7.129-3.491,17.818-3.491,17.818
		c4.394,14.685,15.011,21.183,15.011,21.183c8.535,5.709,16.824,6.838,22.073,6.92l0,0c0.003,0,0.006,0,0.009,0
		c0.002,0,0.005,0,0.007,0l0,0c5.25-0.082,13.544-1.211,22.081-6.92c0,0,10.609-6.498,15.002-21.183
		C99.264,55.202,102.752,44.513,95.778,37.384z"/>
	<path fill="#FFFFFF" d="M93.021,39.033c0,0-3.354-3.763-10.814-4.527c0,0-0.405-21.553-20.027-21.562v-0.003c0,0-0.005,0-0.008,0
		c0,0-0.005,0-0.006,0v0.003c-19.626,0.009-20.023,21.562-20.023,21.562c-7.463,0.765-10.82,4.527-10.82,4.527
		c-6.338,6.488-2.997,15.727-2.997,15.727c4.053,13.572,13.809,19.335,13.809,19.335C50,79.352,57.456,80.413,62.165,80.42l0,0
		c0.001,0,0.005,0,0.005,0c0.004,0,0.008,0,0.008,0h0.001c4.708-0.007,12.168-1.068,20.031-6.325c0,0,9.756-5.763,13.816-19.335
		C96.026,54.76,99.365,45.521,93.021,39.033z"/>
	<path fill="#DC2F34" d="M93.159,47.309c0,0-1.445-8.01-9.478-8.354h-6.729c0.867-1.984,1.169-3.61,1.146-6.533
		c-0.063-8.641-7.005-15.387-15.848-15.387h-0.152c-8.851,0-15.84,6.664-15.906,15.306c-0.021,2.921,0.372,4.754,1.3,6.614h-7.135
		c-8.029,0.529-9.167,8.354-9.167,8.354c-0.684,5.695,1.313,9.401,1.313,9.401s5.06,14.084,21.16,18.466
		c0,0,3.484,1.104,8.509,1.149c5.021-0.046,8.515-1.149,8.515-1.149C86.774,70.794,91.84,56.71,91.84,56.71
		S93.841,53.004,93.159,47.309z M91.258,56.514c0,0-4.965,13.806-20.735,18.102c0,0-3.427,1.082-8.349,1.131
		c-4.927-0.049-8.343-1.131-8.343-1.131c-15.786-4.296-20.745-18.102-20.745-18.102s-1.96-3.633-1.288-9.217
		c0,0,1.417-7.552,9.291-7.767h7.29c-1.084-2.21-1.559-3.827-1.538-6.691c0.063-8.473,6.584-15.226,15.258-15.226h0.151
		c8.667,0,15.193,6.753,15.253,15.226c0.022,2.864-0.454,4.481-1.529,6.691h7.286c7.873,0.215,9.295,7.767,9.295,7.767
		C93.22,52.881,91.258,56.514,91.258,56.514z"/>
	<path fill="#DC2F34" d="M89.854,44.016c-2.599-3.582-6.989-3.531-6.989-3.531H71.974l-0.113,0.224
		c-2.109,3.126-5.651,5.2-9.685,5.282c-4.034-0.082-7.579-2.156-9.693-5.282l-0.105-0.224H41.479c0,0-4.392-0.051-6.975,3.531
		c0,0-3.509,3.637-0.427,11.918c0,0,4.561,13.074,19.982,17.461c0,0,3.283,1.038,8.025,1.096v0.006c0.03,0,0.062-0.006,0.091-0.006
		c0.025,0,0.057,0.006,0.087,0.006V74.49c4.737-0.058,8.023-1.096,8.023-1.096c15.42-4.387,19.979-17.461,19.979-17.461
		C93.354,47.652,89.854,44.016,89.854,44.016z"/>
	<path fill="#FFFFFF" d="M48.861,58.341c3.053-0.747,5.266-3.003,5.266-5.671c0-3.283-3.353-5.943-7.486-5.943
		c-4.136,0-7.488,2.66-7.488,5.943c0,2.656,2.211,4.914,5.244,5.664v3.565h-4.896v1.893l14.313,0.003v-1.896h-4.954V58.341z
		 M46.601,56.811c-1.836,0-3.329-1.93-3.329-4.299c0-2.373,1.493-4.304,3.329-4.304c1.84,0,3.328,1.931,3.328,4.304
		C49.929,54.881,48.44,56.811,46.601,56.811z"/>
	<g>
		<path fill="#FFFFFF" d="M55.35,54.41v0.01v0.01c0.01,0.682,0.564,1.231,1.245,1.231c0.004,0,0.008-0.003,0.02-0.003l0.002,0.008
			h5.111v-1.865h-2.213v-4.901h2.215v-1.87h-6.391l0.004,7.361C55.343,54.4,55.35,54.41,55.35,54.41z"/>
		<path fill="#FFFFFF" d="M64.124,55.658l0.004,0.008h5.546v-1.85h-2.66v-4.923h2.66v-1.857l-6.805-0.007v7.4l0.023,0.019
			C62.907,55.117,63.449,55.651,64.124,55.658z"/>
		<path fill="#FFFFFF" d="M69.845,57.014H55.167v1.947h4.906v3.876c-0.01,0.057-0.011,0.126-0.011,0.183
			c0,0.955,0.996,1.734,2.226,1.734c1.226,0,2.222-0.771,2.228-1.721h0.006V58.95h5.324V57.014z"/>
	</g>
	<g>
		<path fill="#FFFFFF" d="M81,46.721v15.98c0,0.949,0.92,1.717,2.14,1.717c1.222,0,2.052-0.768,2.052-1.717v-15.98H81z"/>
		<path fill="#FFFFFF" d="M71.203,48.945h4.044v10.146c0,0,0,1.941-2.951,2.504h0.008c-0.735,0.11-1.13,0.506-1.13,1.127
			c0,0.62,0.381,1.107,1.01,1.107l0.01,0.012c0,0,7.021,0.288,7.021-4.318V47.002h-8.012V48.945z"/>
	</g>
	<g>
		<path fill="#DC2F34" d="M73.846,33.105c0,0,0.735-4.374-3.8-9.736c0,0-4.677-7.035-10.688-2.618c0,0-2.841-2.165-5.13,0.167
			c0,0-1.922,1.039-0.874,4.242c0,0-5.607,6.47-1.584,12.221c0,0,1.558,1.533,1.692,2.943c0,0,1.44,2.814,6.08,4.332
			c0,0,7.472,2.641,12.552-5.626C72.093,39.03,77.601,37.192,73.846,33.105z M71.876,36.399c-0.263-0.384-1.032-0.312-1.032-0.312
			c-1.025,0.004-0.825,0.836-0.825,0.836c-0.125,1.158-1.722,2.459-1.722,2.459c-0.507,0.13-0.183,0.771-0.183,0.771
			c0.132,0.642-0.382,0.968-0.382,0.968c-2.037,2.195-6.278,1.973-6.278,1.973c-2.375,0.212-5.545-2.467-5.545-2.467
			c-0.775-0.313-0.582-0.956-0.582-0.956c0.058-0.706-0.459-0.962-0.459-0.962c-2.647-2.037-2.545-5.057-2.545-5.057
			c-0.35-3.596,2.644-6.96,2.644-6.96c2.898,0.366,4.366-0.737,4.366-0.737c4.194,2.471,4.688-0.486,4.688-0.486
			c-2.055,0.208-1.164-0.955-1.164-0.955c0.506-0.708,1.735-0.462,1.735-0.462c6.364,1.046,4.341,5.3,4.341,5.3
			c1.936,1.078,1.042,1.988,1.042,1.988c-2.574-0.705-0.632,1.932-0.632,1.932c0.84,0.057,1.239,1.728,1.239,1.728
			c-0.058,1.347,1.291,0.371,1.291,0.371c1.074-1.358,1.278,0.313,1.278,0.313C73.042,37.223,71.876,36.399,71.876,36.399z"/>
		<path fill="#DC2F34" d="M54.857,28.621c0,0,1.981-1.168,2.762-0.148c0,0,0.58,0.378,0.44-0.582c0,0-1.034-2.114-3.398,0.221
			C54.662,28.111,53.449,29.403,54.857,28.621z"/>
		<path fill="#DC2F34" d="M65.891,26.069l-1.569,0.684c-1.048,0.521-0.428,1.239-0.428,1.239c0.875,0.879,1.592,0.164,1.592,0.164
			c1.16-1.308,2.433-0.691,2.433-0.691C67.548,25.009,65.891,26.069,65.891,26.069z"/>
		<path fill="#DC2F34" d="M63.147,33.495c0.898-0.009,1.621-0.737,1.611-1.638c-0.007-0.894-0.737-1.617-1.633-1.612
			c-0.899,0.008-1.62,0.735-1.613,1.632C61.515,32.781,62.253,33.501,63.147,33.495z"/>
		<path fill="#DC2F34" d="M58.345,31.423c0,0-1.41,0.331,0.199,1.284c0,0,1.49,0.826,1.48-0.076c0,0-1.024,0.133-0.2-1.155
			c0,0,0.054-1.608-1.104-1.729C58.721,29.747,59.694,31.414,58.345,31.423z"/>
		<path fill="#DC2F34" d="M56.998,31.176c0,0,1.41-0.336-0.134-0.384c0,0-1.478,0.202-2.065-0.952c0,0-1.228-1.145-0.508,0.264
			C54.291,30.104,54.817,31.898,56.998,31.176z"/>
		<path fill="#DC2F34" d="M66.28,36.054l-1.021,0.649c0,0-0.897,0.394-0.582-0.635c0,0,0.174-2.639-1.488-1.531
			c0,0-1.148,1.229-1.984,1.49c0,0-1.532,0.85-3.146-0.297c0,0-1.687-1.852-2.651-1.715c0,0-1.42-0.439-0.19,0.386
			c0,0,1.034,0.058,1.481,0.698c0,0,0.912,1.018,1.622,1.333c0,0,1.037,1.153,3.347,1.134c0,0,3.151,0.365,5.003-1.258
			C66.67,36.309,67.367,35.34,66.28,36.054z M62.584,36.775l-0.769-0.129c0,0,1.152-0.385,1.542-0.898
			C63.357,35.748,63.105,36.646,62.584,36.775z"/>
		<path fill="#DC2F34" d="M67.659,35.1c0,0-0.748-0.333-0.176,0.401c0,0,0.324,0.237,0.324,0.589c0,0,0.241-0.193,0.11-0.656
			C67.918,35.434,67.79,35.158,67.659,35.1z"/>
		<path fill="#DC2F34" d="M59.761,40.184c-0.292-0.193-0.705,0.231-0.705,0.231c-0.868,0.293-1.803-0.275-1.803-0.275
			c-0.641-0.044-0.889-0.452-0.966-0.64c-0.008-0.354-0.2-0.512-0.2-0.512c-0.61-0.701-0.573,0.133-0.573,0.133
			c0.256,0.254,0.256,0.512,0.256,0.512c-0.058,0.354,0.331,0.676,0.331,0.676c2.021,1.548,2.32,0.979,2.32,0.979
			c0.121-0.031,0.606-0.229,0.606-0.229c0.009-0.066,0.639-0.555,0.639-0.555C60.468,40.086,59.761,40.184,59.761,40.184z"/>
	</g>
	<g>
		<path fill="#DC2F34" d="M92.744,77.473c-1.751,0-3.169,1.416-3.169,3.166c0,1.752,1.418,3.171,3.169,3.171
			c1.749,0,3.169-1.419,3.169-3.171C95.913,78.889,94.493,77.473,92.744,77.473z M92.744,83.248c-1.439,0-2.609-1.166-2.609-2.609
			c0-1.44,1.17-2.607,2.609-2.607c1.441,0,2.611,1.167,2.611,2.607C95.355,82.082,94.186,83.248,92.744,83.248z"/>
		<path fill="#DC2F34" d="M94.212,82.094l-0.029-0.697c-0.021-0.537-0.227-0.633-0.433-0.725c0.232-0.146,0.502-0.354,0.502-0.922
			c0-0.813-0.593-1.035-1.187-1.035h-1.673v3.849h0.487v-1.651h1.186c0.582,0,0.644,0.371,0.644,0.688
			c0,0.146,0.017,0.729,0.085,0.964h0.6v-0.085C94.243,82.388,94.219,82.305,94.212,82.094z M93.015,80.469H91.88V79.16h1.22
			c0.242,0,0.65,0.049,0.65,0.643C93.75,80.372,93.373,80.469,93.015,80.469z"/>
	</g>
</g>
</svg>
